<?xml version="1.0" encoding="UTF-8" standalone="no"?>
<!DOCTYPE svg PUBLIC "-//W3C//DTD SVG 1.1//EN" "http://www.w3.org/Graphics/SVG/1.1/DTD/svg11.dtd">
<svg width="44px" height="44px" viewBox="0 0 44 44" version="1.1" xmlns="http://www.w3.org/2000/svg" xmlns:xlink="http://www.w3.org/1999/xlink" xml:space="preserve" xmlns:serif="http://www.serif.com/" style="fill-rule:evenodd;clip-rule:evenodd;stroke-linejoin:round;stroke-miterlimit:2;">
    <g transform="matrix(1,0,0,1,0.214456,-0.0399181)">
        <g transform="matrix(0.662547,0,0,0.662547,2.2,0.169913)">
            <path d="M29.544,15.75C29.047,15.75 28.644,16.154 28.644,16.652C28.644,17.148 29.047,17.552 29.544,17.552C30.041,17.552 30.445,17.148 30.445,16.652C30.445,16.154 30.041,15.75 29.544,15.75" style="fill:rgb(55,63,73);fill-rule:nonzero;"/>
        </g>
        <g transform="matrix(0.662547,0,0,0.662547,2.2,0.169913)">
            <path d="M31.815,15.25C31.815,14.753 31.411,14.348 30.914,14.348C30.417,14.348 30.014,14.753 30.014,15.25C30.014,15.746 30.417,16.15 30.914,16.15C31.411,16.15 31.815,15.746 31.815,15.25" style="fill:rgb(55,63,73);fill-rule:nonzero;"/>
        </g>
        <g transform="matrix(0.662547,0,0,0.662547,2.2,0.169913)">
            <path d="M31.815,18.054C31.815,17.557 31.411,17.153 30.914,17.153C30.417,17.153 30.014,17.557 30.014,18.054C30.014,18.551 30.417,18.954 30.914,18.954C31.411,18.954 31.815,18.551 31.815,18.054" style="fill:rgb(55,63,73);fill-rule:nonzero;"/>
        </g>
        <g transform="matrix(0.662547,0,0,0.662547,2.2,0.169913)">
            <path d="M32.466,15.706C31.969,15.706 31.566,16.11 31.566,16.607C31.566,17.104 31.969,17.507 32.466,17.507C32.963,17.507 33.366,17.104 33.366,16.607C33.366,16.11 32.963,15.706 32.466,15.706" style="fill:rgb(55,63,73);fill-rule:nonzero;"/>
        </g>
        <g transform="matrix(0.662547,0,0,0.662547,2.2,0.169913)">
            <path d="M34.159,14.291C33.663,14.291 33.259,14.696 33.259,15.193C33.259,15.689 33.663,16.093 34.159,16.093C34.657,16.093 35.061,15.689 35.061,15.193C35.061,14.696 34.657,14.291 34.159,14.291" style="fill:rgb(55,63,73);fill-rule:nonzero;"/>
        </g>
        <g transform="matrix(0.662547,0,0,0.662547,2.2,0.169913)">
            <path d="M34.145,17.184C33.65,17.184 33.246,17.588 33.246,18.085C33.246,18.582 33.65,18.985 34.145,18.985C34.643,18.985 35.047,18.582 35.047,18.085C35.047,17.588 34.643,17.184 34.145,17.184" style="fill:rgb(55,63,73);fill-rule:nonzero;"/>
        </g>
        <g transform="matrix(0.662547,0,0,0.662547,2.2,0.169913)">
            <path d="M32.404,20.386C32.902,20.386 33.305,19.982 33.305,19.486C33.305,18.988 32.902,18.584 32.404,18.584C31.907,18.584 31.505,18.988 31.505,19.486C31.505,19.982 31.907,20.386 32.404,20.386" style="fill:rgb(55,63,73);fill-rule:nonzero;"/>
        </g>
        <g transform="matrix(0.662547,0,0,0.662547,2.2,0.169913)">
            <path d="M31.901,21.231C31.901,20.734 31.497,20.329 31,20.329C30.503,20.329 30.1,20.734 30.1,21.231C30.1,21.727 30.503,22.131 31,22.131C31.497,22.131 31.901,21.727 31.901,21.231" style="fill:rgb(55,63,73);fill-rule:nonzero;"/>
        </g>
        <g transform="matrix(0.662547,0,0,0.662547,2.2,0.169913)">
            <path d="M29.597,24.043C30.094,24.043 30.498,23.64 30.498,23.143C30.498,22.646 30.094,22.242 29.597,22.242C29.101,22.242 28.698,22.646 28.698,23.143C28.698,23.64 29.101,24.043 29.597,24.043" style="fill:rgb(55,63,73);fill-rule:nonzero;"/>
        </g>
        <g transform="matrix(0.662547,0,0,0.662547,2.2,0.169913)">
            <path d="M36.062,15.709C35.565,15.709 35.162,16.114 35.162,16.61C35.162,17.107 35.565,17.511 36.062,17.511C36.559,17.511 36.963,17.107 36.963,16.61C36.963,16.114 36.559,15.709 36.062,15.709" style="fill:rgb(55,63,73);fill-rule:nonzero;"/>
        </g>
        <g transform="matrix(0.662547,0,0,0.662547,2.2,0.169913)">
            <path d="M35.969,18.718C35.472,18.718 35.069,19.123 35.069,19.62C35.069,20.116 35.472,20.52 35.969,20.52C36.466,20.52 36.87,20.116 36.87,19.62C36.87,19.123 36.466,18.718 35.969,18.718" style="fill:rgb(55,63,73);fill-rule:nonzero;"/>
        </g>
        <g transform="matrix(0.662547,0,0,0.662547,2.2,0.169913)">
            <path d="M38.074,17.362C37.578,17.362 37.174,17.766 37.174,18.263C37.174,18.76 37.578,19.163 38.074,19.163C38.571,19.163 38.976,18.76 38.976,18.263C38.976,17.766 38.571,17.362 38.074,17.362" style="fill:rgb(55,63,73);fill-rule:nonzero;"/>
        </g>
        <g transform="matrix(0.662547,0,0,0.662547,2.2,0.169913)">
            <path d="M38.732,21.313C38.732,20.816 38.328,20.412 37.831,20.412C37.335,20.412 36.931,20.816 36.931,21.313C36.931,21.809 37.335,22.213 37.831,22.213C38.328,22.213 38.732,21.809 38.732,21.313" style="fill:rgb(55,63,73);fill-rule:nonzero;"/>
        </g>
        <g transform="matrix(0.662547,0,0,0.662547,2.2,0.169913)">
            <path d="M36.551,22.664C36.551,22.167 36.146,21.762 35.65,21.762C35.152,21.762 34.749,22.167 34.749,22.664C34.749,23.16 35.152,23.564 35.65,23.564C36.146,23.564 36.551,23.16 36.551,22.664" style="fill:rgb(55,63,73);fill-rule:nonzero;"/>
        </g>
        <g transform="matrix(0.662547,0,0,0.662547,2.2,0.169913)">
            <path d="M32.545,23.925C33.042,23.925 33.446,23.522 33.446,23.025C33.446,22.528 33.042,22.124 32.545,22.124C32.048,22.124 31.645,22.528 31.645,23.025C31.645,23.522 32.048,23.925 32.545,23.925" style="fill:rgb(55,63,73);fill-rule:nonzero;"/>
        </g>
        <g transform="matrix(0.662547,0,0,0.662547,2.2,0.169913)">
            <path d="M31.134,26.033C31.632,26.033 32.036,25.63 32.036,25.133C32.036,24.636 31.632,24.232 31.134,24.232C30.638,24.232 30.234,24.636 30.234,25.133C30.234,25.63 30.638,26.033 31.134,26.033" style="fill:rgb(55,63,73);fill-rule:nonzero;"/>
        </g>
        <g transform="matrix(0.662547,0,0,0.662547,2.2,0.169913)">
            <path d="M29.586,28.269C30.084,28.269 30.488,27.866 30.488,27.369C30.488,26.872 30.084,26.468 29.586,26.468C29.091,26.468 28.687,26.872 28.687,27.369C28.687,27.866 29.091,28.269 29.586,28.269" style="fill:rgb(55,63,73);fill-rule:nonzero;"/>
        </g>
        <g transform="matrix(0.662547,0,0,0.662547,2.2,0.169913)">
            <path d="M34.863,21.023C34.863,20.527 34.459,20.122 33.962,20.122C33.466,20.122 33.063,20.527 33.063,21.023C33.063,21.52 33.466,21.923 33.962,21.923C34.459,21.923 34.863,21.52 34.863,21.023" style="fill:rgb(55,63,73);fill-rule:nonzero;"/>
        </g>
        <g transform="matrix(0.662547,0,0,0.662547,2.2,0.169913)">
            <path d="M40.184,19.01C39.688,19.01 39.284,19.414 39.284,19.911C39.284,20.408 39.688,20.811 40.184,20.811C40.682,20.811 41.086,20.408 41.086,19.911C41.086,19.414 40.682,19.01 40.184,19.01" style="fill:rgb(55,63,73);fill-rule:nonzero;"/>
        </g>
        <g transform="matrix(0.662547,0,0,0.662547,2.2,0.169913)">
            <path d="M39.849,22.255C39.352,22.255 38.949,22.659 38.949,23.156C38.949,23.653 39.352,24.056 39.849,24.056C40.346,24.056 40.75,23.653 40.75,23.156C40.75,22.659 40.346,22.255 39.849,22.255" style="fill:rgb(55,63,73);fill-rule:nonzero;"/>
        </g>
        <g transform="matrix(0.662547,0,0,0.662547,2.2,0.169913)">
            <path d="M42.066,24.192C41.568,24.192 41.165,24.596 41.165,25.093C41.165,25.59 41.568,25.993 42.066,25.993C42.562,25.993 42.966,25.59 42.966,25.093C42.966,24.596 42.562,24.192 42.066,24.192" style="fill:rgb(55,63,73);fill-rule:nonzero;"/>
        </g>
        <g transform="matrix(0.662547,0,0,0.662547,2.2,0.169913)">
            <path d="M39.333,25.46C38.837,25.46 38.433,25.864 38.433,26.361C38.433,26.858 38.837,27.261 39.333,27.261C39.83,27.261 40.235,26.858 40.235,26.361C40.235,25.864 39.83,25.46 39.333,25.46" style="fill:rgb(55,63,73);fill-rule:nonzero;"/>
        </g>
        <g transform="matrix(0.662547,0,0,0.662547,2.2,0.169913)">
            <path d="M38.35,24.511C38.35,24.013 37.945,23.609 37.448,23.609C36.952,23.609 36.549,24.013 36.549,24.511C36.549,25.007 36.952,25.411 37.448,25.411C37.945,25.411 38.35,25.007 38.35,24.511" style="fill:rgb(55,63,73);fill-rule:nonzero;"/>
        </g>
        <g transform="matrix(0.662547,0,0,0.662547,2.2,0.169913)">
            <path d="M36.109,27.809C36.606,27.809 37.009,27.405 37.009,26.909C37.009,26.411 36.606,26.007 36.109,26.007C35.612,26.007 35.209,26.411 35.209,26.909C35.209,27.405 35.612,27.809 36.109,27.809" style="fill:rgb(55,63,73);fill-rule:nonzero;"/>
        </g>
        <g transform="matrix(0.662547,0,0,0.662547,2.2,0.169913)">
            <path d="M32.839,28.147C33.336,28.147 33.74,27.744 33.74,27.247C33.74,26.75 33.336,26.346 32.839,26.346C32.342,26.346 31.939,26.75 31.939,27.247C31.939,27.744 32.342,28.147 32.839,28.147" style="fill:rgb(55,63,73);fill-rule:nonzero;"/>
        </g>
        <g transform="matrix(0.662547,0,0,0.662547,2.2,0.169913)">
            <path d="M35.148,24.906C35.148,24.41 34.744,24.005 34.246,24.005C33.75,24.005 33.347,24.41 33.347,24.906C33.347,25.403 33.75,25.806 34.246,25.806C34.744,25.806 35.148,25.403 35.148,24.906" style="fill:rgb(55,63,73);fill-rule:nonzero;"/>
        </g>
        <g transform="matrix(0.662547,0,0,0.662547,2.2,0.169913)">
            <path d="M41.431,27.568C40.934,27.568 40.53,27.972 40.53,28.47C40.53,28.966 40.934,29.37 41.431,29.37C41.928,29.37 42.332,28.966 42.332,28.47C42.332,27.972 41.928,27.568 41.431,27.568" style="fill:rgb(55,63,73);fill-rule:nonzero;"/>
        </g>
        <g transform="matrix(0.662547,0,0,0.662547,2.2,0.169913)">
            <path d="M38.012,28.218C37.516,28.218 37.112,28.623 37.112,29.12C37.112,29.616 37.516,30.021 38.012,30.021C38.51,30.021 38.914,29.616 38.914,29.12C38.914,28.623 38.51,28.218 38.012,28.218" style="fill:rgb(55,63,73);fill-rule:nonzero;"/>
        </g>
        <g transform="matrix(0.662547,0,0,0.662547,2.2,0.169913)">
            <path d="M36.537,30.842C36.04,30.842 35.636,31.246 35.636,31.743C35.636,32.24 36.04,32.643 36.537,32.643C37.033,32.643 37.438,32.24 37.438,31.743C37.438,31.246 37.033,30.842 36.537,30.842" style="fill:rgb(55,63,73);fill-rule:nonzero;"/>
        </g>
        <g transform="matrix(0.662547,0,0,0.662547,2.2,0.169913)">
            <path d="M34.613,28.588C34.116,28.588 33.712,28.992 33.712,29.489C33.712,29.986 34.116,30.389 34.613,30.389C35.11,30.389 35.514,29.986 35.514,29.489C35.514,28.992 35.11,28.588 34.613,28.588" style="fill:rgb(55,63,73);fill-rule:nonzero;"/>
        </g>
        <g transform="matrix(0.662547,0,0,0.662547,2.2,0.169913)">
            <path d="M33.05,31.293C32.553,31.293 32.15,31.698 32.15,32.195C32.15,32.691 32.553,33.095 33.05,33.095C33.547,33.095 33.951,32.691 33.951,32.195C33.951,31.698 33.547,31.293 33.05,31.293" style="fill:rgb(55,63,73);fill-rule:nonzero;"/>
        </g>
        <g transform="matrix(0.662547,0,0,0.662547,2.2,0.169913)">
            <path d="M31.217,28.813C30.721,28.813 30.317,29.217 30.317,29.714C30.317,30.211 30.721,30.614 31.217,30.614C31.715,30.614 32.119,30.211 32.119,29.714C32.119,29.217 31.715,28.813 31.217,28.813" style="fill:rgb(55,63,73);fill-rule:nonzero;"/>
        </g>
        <g transform="matrix(0.662547,0,0,0.662547,2.2,0.169913)">
            <path d="M29.6,31.467C29.104,31.467 28.7,31.872 28.7,32.369C28.7,32.865 29.104,33.269 29.6,33.269C30.097,33.269 30.502,32.865 30.502,32.369C30.502,31.872 30.097,31.467 29.6,31.467" style="fill:rgb(55,63,73);fill-rule:nonzero;"/>
        </g>
        <g transform="matrix(0.662547,0,0,0.662547,2.2,0.169913)">
            <path d="M27.873,28.813C27.376,28.813 26.973,29.217 26.973,29.714C26.973,30.211 27.376,30.614 27.873,30.614C28.37,30.614 28.774,30.211 28.774,29.714C28.774,29.217 28.37,28.813 27.873,28.813" style="fill:rgb(55,63,73);fill-rule:nonzero;"/>
        </g>
        <g transform="matrix(0.662547,0,0,0.662547,2.2,0.169913)">
            <path d="M26.063,31.303C25.566,31.303 25.163,31.708 25.163,32.205C25.163,32.701 25.566,33.105 26.063,33.105C26.56,33.105 26.964,32.701 26.964,32.205C26.964,31.708 26.56,31.303 26.063,31.303" style="fill:rgb(55,63,73);fill-rule:nonzero;"/>
        </g>
        <g transform="matrix(0.662547,0,0,0.662547,2.2,0.169913)">
            <path d="M22.669,30.839C22.173,30.839 21.769,31.244 21.769,31.74C21.769,32.237 22.173,32.64 22.669,32.64C23.167,32.64 23.571,32.237 23.571,31.74C23.571,31.244 23.167,30.839 22.669,30.839" style="fill:rgb(55,63,73);fill-rule:nonzero;"/>
        </g>
        <g transform="matrix(0.662547,0,0,0.662547,2.2,0.169913)">
            <path d="M42.438,20.774C41.942,20.774 41.538,21.179 41.538,21.676C41.538,22.172 41.942,22.576 42.438,22.576C42.936,22.576 43.34,22.172 43.34,21.676C43.34,21.179 42.936,20.774 42.438,20.774" style="fill:rgb(55,63,73);fill-rule:nonzero;"/>
        </g>
        <g transform="matrix(0.662547,0,0,0.662547,2.2,0.169913)">
            <path d="M44.692,22.632C44.196,22.632 43.792,23.036 43.792,23.533C43.792,24.03 44.196,24.433 44.692,24.433C45.19,24.433 45.594,24.03 45.594,23.533C45.594,23.036 45.19,22.632 44.692,22.632" style="fill:rgb(55,63,73);fill-rule:nonzero;"/>
        </g>
        <g transform="matrix(0.662547,0,0,0.662547,2.2,0.169913)">
            <path d="M45.146,19.209C44.65,19.209 44.246,19.614 44.246,20.111C44.246,20.607 44.65,21.012 45.146,21.012C45.644,21.012 46.048,20.607 46.048,20.111C46.048,19.614 45.644,19.209 45.146,19.209" style="fill:rgb(55,63,73);fill-rule:nonzero;"/>
        </g>
        <g transform="matrix(0.662547,0,0,0.662547,2.2,0.169913)">
            <path d="M42.645,17.422C42.147,17.422 41.744,17.826 41.744,18.323C41.744,18.82 42.147,19.223 42.645,19.223C43.141,19.223 43.546,18.82 43.546,18.323C43.546,17.826 43.141,17.422 42.645,17.422" style="fill:rgb(55,63,73);fill-rule:nonzero;"/>
        </g>
        <g transform="matrix(0.662547,0,0,0.662547,2.2,0.169913)">
            <path d="M45.298,15.718C44.801,15.718 44.398,16.122 44.398,16.619C44.398,17.116 44.801,17.519 45.298,17.519C45.795,17.519 46.199,17.116 46.199,16.619C46.199,16.122 45.795,15.718 45.298,15.718" style="fill:rgb(55,63,73);fill-rule:nonzero;"/>
        </g>
        <g transform="matrix(0.662547,0,0,0.662547,2.2,0.169913)">
            <path d="M42.643,14.089C42.147,14.089 41.744,14.494 41.744,14.991C41.744,15.487 42.147,15.891 42.643,15.891C43.14,15.891 43.545,15.487 43.545,14.991C43.545,14.494 43.14,14.089 42.643,14.089" style="fill:rgb(55,63,73);fill-rule:nonzero;"/>
        </g>
        <g transform="matrix(0.662547,0,0,0.662547,2.2,0.169913)">
            <path d="M44.235,13.139C44.235,13.635 44.639,14.039 45.135,14.039C45.632,14.039 46.037,13.635 46.037,13.139C46.037,12.642 45.632,12.237 45.135,12.237C44.639,12.237 44.235,12.642 44.235,13.139" style="fill:rgb(55,63,73);fill-rule:nonzero;"/>
        </g>
        <g transform="matrix(0.662547,0,0,0.662547,2.2,0.169913)">
            <path d="M41.521,11.585C41.521,12.082 41.925,12.485 42.421,12.485C42.919,12.485 43.323,12.082 43.323,11.585C43.323,11.088 42.919,10.684 42.421,10.684C41.925,10.684 41.521,11.088 41.521,11.585" style="fill:rgb(55,63,73);fill-rule:nonzero;"/>
        </g>
        <g transform="matrix(0.662547,0,0,0.662547,2.2,0.169913)">
            <path d="M44.691,10.575C45.188,10.575 45.591,10.172 45.591,9.675C45.591,9.178 45.188,8.774 44.691,8.774C44.194,8.774 43.791,9.178 43.791,9.675C43.791,10.172 44.194,10.575 44.691,10.575" style="fill:rgb(55,63,73);fill-rule:nonzero;"/>
        </g>
        <g transform="matrix(0.662547,0,0,0.662547,2.2,0.169913)">
            <path d="M41.16,8.202C41.16,8.699 41.563,9.102 42.059,9.102C42.557,9.102 42.961,8.699 42.961,8.202C42.961,7.705 42.557,7.301 42.059,7.301C41.563,7.301 41.16,7.705 41.16,8.202" style="fill:rgb(55,63,73);fill-rule:nonzero;"/>
        </g>
        <g transform="matrix(0.662547,0,0,0.662547,2.2,0.169913)">
            <path d="M41.424,5.731C41.921,5.731 42.325,5.328 42.325,4.831C42.325,4.334 41.921,3.93 41.424,3.93C40.928,3.93 40.524,4.334 40.524,4.831C40.524,5.328 40.928,5.731 41.424,5.731" style="fill:rgb(55,63,73);fill-rule:nonzero;"/>
        </g>
        <g transform="matrix(0.662547,0,0,0.662547,2.2,0.169913)">
            <path d="M38.45,6.915C38.45,7.41 38.854,7.815 39.35,7.815C39.847,7.815 40.252,7.41 40.252,6.915C40.252,6.417 39.847,6.013 39.35,6.013C38.854,6.013 38.45,6.417 38.45,6.915" style="fill:rgb(55,63,73);fill-rule:nonzero;"/>
        </g>
        <g transform="matrix(0.662547,0,0,0.662547,2.2,0.169913)">
            <path d="M37.431,7.871C36.934,7.871 36.531,8.275 36.531,8.772C36.531,9.269 36.934,9.672 37.431,9.672C37.928,9.672 38.332,9.269 38.332,8.772C38.332,8.275 37.928,7.871 37.431,7.871" style="fill:rgb(55,63,73);fill-rule:nonzero;"/>
        </g>
        <g transform="matrix(0.662547,0,0,0.662547,2.2,0.169913)">
            <path d="M34.744,10.607C34.744,11.103 35.148,11.507 35.644,11.507C36.141,11.507 36.546,11.103 36.546,10.607C36.546,10.11 36.141,9.706 35.644,9.706C35.148,9.706 34.744,10.11 34.744,10.607" style="fill:rgb(55,63,73);fill-rule:nonzero;"/>
        </g>
        <g transform="matrix(0.662547,0,0,0.662547,2.2,0.169913)">
            <path d="M34.259,7.474C33.763,7.474 33.359,7.879 33.359,8.375C33.359,8.872 33.763,9.275 34.259,9.275C34.756,9.275 35.161,8.872 35.161,8.375C35.161,7.879 34.756,7.474 34.259,7.474" style="fill:rgb(55,63,73);fill-rule:nonzero;"/>
        </g>
        <g transform="matrix(0.662547,0,0,0.662547,2.2,0.169913)">
            <path d="M32.829,5.146C32.332,5.146 31.929,5.55 31.929,6.047C31.929,6.544 32.332,6.947 32.829,6.947C33.326,6.947 33.73,6.544 33.73,6.047C33.73,5.55 33.326,5.146 32.829,5.146" style="fill:rgb(55,63,73);fill-rule:nonzero;"/>
        </g>
        <g transform="matrix(0.662547,0,0,0.662547,2.2,0.169913)">
            <path d="M31.147,7.229C30.65,7.229 30.247,7.633 30.247,8.131C30.247,8.627 30.65,9.031 31.147,9.031C31.643,9.031 32.047,8.627 32.047,8.131C32.047,7.633 31.643,7.229 31.147,7.229" style="fill:rgb(55,63,73);fill-rule:nonzero;"/>
        </g>
        <g transform="matrix(0.662547,0,0,0.662547,2.2,0.169913)">
            <path d="M27.942,7.249C27.446,7.249 27.042,7.653 27.042,8.151C27.042,8.647 27.446,9.051 27.942,9.051C28.44,9.051 28.844,8.647 28.844,8.151C28.844,7.653 28.44,7.249 27.942,7.249" style="fill:rgb(55,63,73);fill-rule:nonzero;"/>
        </g>
        <g transform="matrix(0.662547,0,0,0.662547,2.2,0.169913)">
            <path d="M26.587,9.363C26.091,9.363 25.687,9.768 25.687,10.265C25.687,10.761 26.091,11.165 26.587,11.165C27.084,11.165 27.488,10.761 27.488,10.265C27.488,9.768 27.084,9.363 26.587,9.363" style="fill:rgb(55,63,73);fill-rule:nonzero;"/>
        </g>
        <g transform="matrix(0.662547,0,0,0.662547,2.2,0.169913)">
            <path d="M27.198,12.075C27.198,12.571 27.602,12.975 28.098,12.975C28.596,12.975 29,12.571 29,12.075C29,11.578 28.596,11.173 28.098,11.173C27.602,11.173 27.198,11.578 27.198,12.075" style="fill:rgb(55,63,73);fill-rule:nonzero;"/>
        </g>
        <g transform="matrix(0.662547,0,0,0.662547,2.2,0.169913)">
            <path d="M24.276,12.253C24.276,12.75 24.679,13.153 25.177,13.153C25.673,13.153 26.077,12.75 26.077,12.253C26.077,11.756 25.673,11.352 25.177,11.352C24.679,11.352 24.276,11.756 24.276,12.253" style="fill:rgb(55,63,73);fill-rule:nonzero;"/>
        </g>
        <g transform="matrix(0.662547,0,0,0.662547,2.2,0.169913)">
            <path d="M23.17,12.765C22.673,12.765 22.27,13.17 22.27,13.667C22.27,14.163 22.673,14.567 23.17,14.567C23.667,14.567 24.071,14.163 24.071,13.667C24.071,13.17 23.667,12.765 23.17,12.765" style="fill:rgb(55,63,73);fill-rule:nonzero;"/>
        </g>
        <g transform="matrix(0.662547,0,0,0.662547,2.2,0.169913)">
            <path d="M21.059,15.963C21.557,15.963 21.961,15.56 21.961,15.063C21.961,14.566 21.557,14.161 21.059,14.161C20.563,14.161 20.159,14.566 20.159,15.063C20.159,15.56 20.563,15.963 21.059,15.963" style="fill:rgb(55,63,73);fill-rule:nonzero;"/>
        </g>
        <g transform="matrix(0.662547,0,0,0.662547,2.2,0.169913)">
            <path d="M20.388,11.96C20.388,12.456 20.791,12.86 21.288,12.86C21.785,12.86 22.188,12.456 22.188,11.96C22.188,11.463 21.785,11.059 21.288,11.059C20.791,11.059 20.388,11.463 20.388,11.96" style="fill:rgb(55,63,73);fill-rule:nonzero;"/>
        </g>
        <g transform="matrix(0.662547,0,0,0.662547,2.2,0.169913)">
            <path d="M18.042,13.361C18.042,13.857 18.445,14.261 18.941,14.261C19.438,14.261 19.843,13.857 19.843,13.361C19.843,12.864 19.438,12.459 18.941,12.459C18.445,12.459 18.042,12.864 18.042,13.361" style="fill:rgb(55,63,73);fill-rule:nonzero;"/>
        </g>
        <g transform="matrix(0.662547,0,0,0.662547,2.2,0.169913)">
            <path d="M16.474,15.874C16.971,15.874 17.375,15.47 17.375,14.974C17.375,14.476 16.971,14.072 16.474,14.072C15.977,14.072 15.574,14.476 15.574,14.974C15.574,15.47 15.977,15.874 16.474,15.874" style="fill:rgb(55,63,73);fill-rule:nonzero;"/>
        </g>
        <g transform="matrix(0.662547,0,0,0.662547,2.2,0.169913)">
            <path d="M13.982,14.032C14.48,14.032 14.884,13.629 14.884,13.132C14.884,12.635 14.48,12.231 13.982,12.231C13.486,12.231 13.082,12.635 13.082,13.132C13.082,13.629 13.486,14.032 13.982,14.032" style="fill:rgb(55,63,73);fill-rule:nonzero;"/>
        </g>
        <g transform="matrix(0.662547,0,0,0.662547,2.2,0.169913)">
            <path d="M16.707,12.493C17.204,12.493 17.608,12.09 17.608,11.593C17.608,11.096 17.204,10.692 16.707,10.692C16.21,10.692 15.807,11.096 15.807,11.593C15.807,12.09 16.21,12.493 16.707,12.493" style="fill:rgb(55,63,73);fill-rule:nonzero;"/>
        </g>
        <g transform="matrix(0.662547,0,0,0.662547,2.2,0.169913)">
            <path d="M14.449,8.761C13.953,8.761 13.549,9.165 13.549,9.662C13.549,10.159 13.953,10.562 14.449,10.562C14.946,10.562 15.351,10.159 15.351,9.662C15.351,9.165 14.946,8.761 14.449,8.761" style="fill:rgb(55,63,73);fill-rule:nonzero;"/>
        </g>
        <g transform="matrix(0.662547,0,0,0.662547,2.2,0.169913)">
            <path d="M17.099,9.106C17.596,9.106 18,8.702 18,8.206C18,7.708 17.596,7.304 17.099,7.304C16.603,7.304 16.2,7.708 16.2,8.206C16.2,8.702 16.603,9.106 17.099,9.106" style="fill:rgb(55,63,73);fill-rule:nonzero;"/>
        </g>
        <g transform="matrix(0.662547,0,0,0.662547,2.2,0.169913)">
            <path d="M19.282,9.197C18.785,9.197 18.382,9.601 18.382,10.099C18.382,10.595 18.785,10.999 19.282,10.999C19.779,10.999 20.183,10.595 20.183,10.099C20.183,9.601 19.779,9.197 19.282,9.197" style="fill:rgb(55,63,73);fill-rule:nonzero;"/>
        </g>
        <g transform="matrix(0.662547,0,0,0.662547,2.2,0.169913)">
            <path d="M20.815,8.764C20.815,9.26 21.218,9.664 21.715,9.664C22.212,9.664 22.616,9.26 22.616,8.764C22.616,8.266 22.212,7.863 21.715,7.863C21.218,7.863 20.815,8.266 20.815,8.764" style="fill:rgb(55,63,73);fill-rule:nonzero;"/>
        </g>
        <g transform="matrix(0.662547,0,0,0.662547,2.2,0.169913)">
            <path d="M22.577,10.61C22.577,11.105 22.98,11.51 23.477,11.51C23.974,11.51 24.378,11.105 24.378,10.61C24.378,10.112 23.974,9.708 23.477,9.708C22.98,9.708 22.577,10.112 22.577,10.61" style="fill:rgb(55,63,73);fill-rule:nonzero;"/>
        </g>
        <g transform="matrix(0.662547,0,0,0.662547,2.2,0.169913)">
            <path d="M18.828,17.506C19.325,17.506 19.729,17.103 19.729,16.606C19.729,16.109 19.325,15.705 18.828,15.705C18.332,15.705 17.928,16.109 17.928,16.606C17.928,17.103 18.332,17.506 18.828,17.506" style="fill:rgb(55,63,73);fill-rule:nonzero;"/>
        </g>
        <g transform="matrix(0.662547,0,0,0.662547,2.2,0.169913)">
            <path d="M29.603,9.257C29.106,9.257 28.703,9.661 28.703,10.158C28.703,10.655 29.106,11.058 29.603,11.058C30.1,11.058 30.504,10.655 30.504,10.158C30.504,9.661 30.1,9.257 29.603,9.257" style="fill:rgb(55,63,73);fill-rule:nonzero;"/>
        </g>
        <g transform="matrix(0.662547,0,0,0.662547,2.2,0.169913)">
            <path d="M36.103,5.45C35.606,5.45 35.202,5.854 35.202,6.351C35.202,6.848 35.606,7.251 36.103,7.251C36.599,7.251 37.004,6.848 37.004,6.351C37.004,5.854 36.599,5.45 36.103,5.45" style="fill:rgb(55,63,73);fill-rule:nonzero;"/>
        </g>
        <g transform="matrix(0.662547,0,0,0.662547,2.2,0.169913)">
            <path d="M37.113,4.133C37.113,4.63 37.517,5.033 38.013,5.033C38.51,5.033 38.915,4.63 38.915,4.133C38.915,3.637 38.51,3.232 38.013,3.232C37.517,3.232 37.113,3.637 37.113,4.133" style="fill:rgb(55,63,73);fill-rule:nonzero;"/>
        </g>
        <g transform="matrix(0.662547,0,0,0.662547,2.2,0.169913)">
            <path d="M34.621,4.679C35.118,4.679 35.522,4.275 35.522,3.779C35.522,3.282 35.118,2.877 34.621,2.877C34.124,2.877 33.721,3.282 33.721,3.779C33.721,4.275 34.124,4.679 34.621,4.679" style="fill:rgb(55,63,73);fill-rule:nonzero;"/>
        </g>
        <g transform="matrix(0.662547,0,0,0.662547,2.2,0.169913)">
            <path d="M36.542,2.424C37.04,2.424 37.443,2.02 37.443,1.524C37.443,1.027 37.04,0.622 36.542,0.622C36.046,0.622 35.642,1.027 35.642,1.524C35.642,2.02 36.046,2.424 36.542,2.424" style="fill:rgb(55,63,73);fill-rule:nonzero;"/>
        </g>
        <g transform="matrix(0.662547,0,0,0.662547,2.2,0.169913)">
            <path d="M33.058,1.983C33.554,1.983 33.958,1.579 33.958,1.083C33.958,0.585 33.554,0.181 33.058,0.181C32.56,0.181 32.157,0.585 32.157,1.083C32.157,1.579 32.56,1.983 33.058,1.983" style="fill:rgb(55,63,73);fill-rule:nonzero;"/>
        </g>
        <g transform="matrix(0.662547,0,0,0.662547,2.2,0.169913)">
            <path d="M29.59,1.802C30.087,1.802 30.491,1.398 30.491,0.901C30.491,0.404 30.087,0 29.59,0C29.094,0 28.69,0.404 28.69,0.901C28.69,1.398 29.094,1.802 29.59,1.802" style="fill:rgb(55,63,73);fill-rule:nonzero;"/>
        </g>
        <g transform="matrix(0.662547,0,0,0.662547,2.2,0.169913)">
            <path d="M26.057,1.973C26.554,1.973 26.958,1.57 26.958,1.073C26.958,0.576 26.554,0.172 26.057,0.172C25.56,0.172 25.156,0.576 25.156,1.073C25.156,1.57 25.56,1.973 26.057,1.973" style="fill:rgb(55,63,73);fill-rule:nonzero;"/>
        </g>
        <g transform="matrix(0.662547,0,0,0.662547,2.2,0.169913)">
            <path d="M22.666,2.432C23.163,2.432 23.568,2.029 23.568,1.532C23.568,1.035 23.163,0.631 22.666,0.631C22.17,0.631 21.766,1.035 21.766,1.532C21.766,2.029 22.17,2.432 22.666,2.432" style="fill:rgb(55,63,73);fill-rule:nonzero;"/>
        </g>
        <g transform="matrix(0.662547,0,0,0.662547,2.2,0.169913)">
            <path d="M27.848,4.466C28.345,4.466 28.749,4.063 28.749,3.566C28.749,3.069 28.345,2.665 27.848,2.665C27.352,2.665 26.948,3.069 26.948,3.566C26.948,4.063 27.352,4.466 27.848,4.466" style="fill:rgb(55,63,73);fill-rule:nonzero;"/>
        </g>
        <g transform="matrix(0.662547,0,0,0.662547,2.2,0.169913)">
            <path d="M24.509,4.688C25.006,4.688 25.411,4.285 25.411,3.788C25.411,3.291 25.006,2.887 24.509,2.887C24.013,2.887 23.609,3.291 23.609,3.788C23.609,4.285 24.013,4.688 24.509,4.688" style="fill:rgb(55,63,73);fill-rule:nonzero;"/>
        </g>
        <g transform="matrix(0.662547,0,0,0.662547,2.2,0.169913)">
            <path d="M23.032,5.461C22.536,5.461 22.132,5.865 22.132,6.362C22.132,6.859 22.536,7.262 23.032,7.262C23.529,7.262 23.933,6.859 23.933,6.362C23.933,5.865 23.529,5.461 23.032,5.461" style="fill:rgb(55,63,73);fill-rule:nonzero;"/>
        </g>
        <g transform="matrix(0.662547,0,0,0.662547,2.2,0.169913)">
            <path d="M19.776,7.823C20.273,7.823 20.678,7.419 20.678,6.923C20.678,6.426 20.273,6.021 19.776,6.021C19.28,6.021 18.876,6.426 18.876,6.923C18.876,7.419 19.28,7.823 19.776,7.823" style="fill:rgb(55,63,73);fill-rule:nonzero;"/>
        </g>
        <g transform="matrix(0.662547,0,0,0.662547,2.2,0.169913)">
            <path d="M17.872,5.717C18.369,5.717 18.774,5.313 18.774,4.817C18.774,4.32 18.369,3.915 17.872,3.915C17.376,3.915 16.972,4.32 16.972,4.817C16.972,5.313 17.376,5.717 17.872,5.717" style="fill:rgb(55,63,73);fill-rule:nonzero;"/>
        </g>
        <g transform="matrix(0.662547,0,0,0.662547,2.2,0.169913)">
            <path d="M21.136,5.046C21.633,5.046 22.037,4.643 22.037,4.146C22.037,3.649 21.633,3.245 21.136,3.245C20.639,3.245 20.236,3.649 20.236,4.146C20.236,4.643 20.639,5.046 21.136,5.046" style="fill:rgb(55,63,73);fill-rule:nonzero;"/>
        </g>
        <g transform="matrix(0.662547,0,0,0.662547,2.2,0.169913)">
            <path d="M23.979,8.364C23.979,8.859 24.383,9.264 24.879,9.264C25.377,9.264 25.781,8.859 25.781,8.364C25.781,7.866 25.377,7.462 24.879,7.462C24.383,7.462 23.979,7.866 23.979,8.364" style="fill:rgb(55,63,73);fill-rule:nonzero;"/>
        </g>
        <g transform="matrix(0.662547,0,0,0.662547,2.2,0.169913)">
            <path d="M26.275,5.133C25.778,5.133 25.375,5.537 25.375,6.034C25.375,6.531 25.778,6.934 26.275,6.934C26.771,6.934 27.176,6.531 27.176,6.034C27.176,5.537 26.771,5.133 26.275,5.133" style="fill:rgb(55,63,73);fill-rule:nonzero;"/>
        </g>
        <g transform="matrix(0.662547,0,0,0.662547,2.2,0.169913)">
            <path d="M31.212,4.465C31.709,4.465 32.113,4.062 32.113,3.565C32.113,3.068 31.709,2.663 31.212,2.663C30.715,2.663 30.312,3.068 30.312,3.565C30.312,4.062 30.715,4.465 31.212,4.465" style="fill:rgb(55,63,73);fill-rule:nonzero;"/>
        </g>
        <g transform="matrix(0.662547,0,0,0.662547,2.2,0.169913)">
            <path d="M29.595,4.996C29.099,4.996 28.695,5.4 28.695,5.897C28.695,6.394 29.099,6.797 29.595,6.797C30.092,6.797 30.497,6.394 30.497,5.897C30.497,5.4 30.092,4.996 29.595,4.996" style="fill:rgb(55,63,73);fill-rule:nonzero;"/>
        </g>
        <g transform="matrix(0.662547,0,0,0.662547,2.2,0.169913)">
            <path d="M34.832,12.242C34.832,11.745 34.428,11.341 33.931,11.341C33.435,11.341 33.031,11.745 33.031,12.242C33.031,12.739 33.435,13.142 33.931,13.142C34.428,13.142 34.832,12.739 34.832,12.242" style="fill:rgb(55,63,73);fill-rule:nonzero;"/>
        </g>
        <g transform="matrix(0.662547,0,0,0.662547,2.2,0.169913)">
            <path d="M32.423,12.894C31.928,12.894 31.524,13.298 31.524,13.795C31.524,14.292 31.928,14.695 32.423,14.695C32.921,14.695 33.325,14.292 33.325,13.795C33.325,13.298 32.921,12.894 32.423,12.894" style="fill:rgb(55,63,73);fill-rule:nonzero;"/>
        </g>
        <g transform="matrix(0.662547,0,0,0.662547,2.2,0.169913)">
            <path d="M30.112,12.036C30.112,12.533 30.515,12.936 31.012,12.936C31.509,12.936 31.913,12.533 31.913,12.036C31.913,11.539 31.509,11.135 31.012,11.135C30.515,11.135 30.112,11.539 30.112,12.036" style="fill:rgb(55,63,73);fill-rule:nonzero;"/>
        </g>
        <g transform="matrix(0.662547,0,0,0.662547,2.2,0.169913)">
            <path d="M29.588,12.834C29.092,12.834 28.688,13.239 28.688,13.736C28.688,14.232 29.092,14.636 29.588,14.636C30.085,14.636 30.489,14.232 30.489,13.736C30.489,13.239 30.085,12.834 29.588,12.834" style="fill:rgb(55,63,73);fill-rule:nonzero;"/>
        </g>
        <g transform="matrix(0.662547,0,0,0.662547,2.2,0.169913)">
            <path d="M27.273,15.25C27.273,15.746 27.677,16.15 28.173,16.15C28.67,16.15 29.075,15.746 29.075,15.25C29.075,14.753 28.67,14.348 28.173,14.348C27.677,14.348 27.273,14.753 27.273,15.25" style="fill:rgb(55,63,73);fill-rule:nonzero;"/>
        </g>
        <g transform="matrix(0.662547,0,0,0.662547,2.2,0.169913)">
            <path d="M26.733,12.911C26.236,12.911 25.833,13.315 25.833,13.812C25.833,14.309 26.236,14.712 26.733,14.712C27.23,14.712 27.634,14.309 27.634,13.812C27.634,13.315 27.23,12.911 26.733,12.911" style="fill:rgb(55,63,73);fill-rule:nonzero;"/>
        </g>
        <g transform="matrix(0.662547,0,0,0.662547,2.2,0.169913)">
            <path d="M26.651,17.524C27.147,17.524 27.552,17.12 27.552,16.624C27.552,16.127 27.147,15.722 26.651,15.722C26.154,15.722 25.75,16.127 25.75,16.624C25.75,17.12 26.154,17.524 26.651,17.524" style="fill:rgb(55,63,73);fill-rule:nonzero;"/>
        </g>
        <g transform="matrix(0.662547,0,0,0.662547,2.2,0.169913)">
            <path d="M24.967,16.119C25.464,16.119 25.868,15.716 25.868,15.219C25.868,14.722 25.464,14.318 24.967,14.318C24.471,14.318 24.067,14.722 24.067,15.219C24.067,15.716 24.471,16.119 24.967,16.119" style="fill:rgb(55,63,73);fill-rule:nonzero;"/>
        </g>
        <g transform="matrix(0.662547,0,0,0.662547,2.2,0.169913)">
            <path d="M24.974,19.009C25.472,19.009 25.876,18.605 25.876,18.109C25.876,17.611 25.472,17.207 24.974,17.207C24.479,17.207 24.075,17.611 24.075,18.109C24.075,18.605 24.479,19.009 24.974,19.009" style="fill:rgb(55,63,73);fill-rule:nonzero;"/>
        </g>
        <g transform="matrix(0.662547,0,0,0.662547,2.2,0.169913)">
            <path d="M23.071,17.503C23.568,17.503 23.972,17.1 23.972,16.603C23.972,16.106 23.568,15.702 23.071,15.702C22.574,15.702 22.171,16.106 22.171,16.603C22.171,17.1 22.574,17.503 23.071,17.503" style="fill:rgb(55,63,73);fill-rule:nonzero;"/>
        </g>
        <g transform="matrix(0.662547,0,0,0.662547,2.2,0.169913)">
            <path d="M23.215,20.537C23.711,20.537 24.116,20.133 24.116,19.637C24.116,19.14 23.711,18.735 23.215,18.735C22.718,18.735 22.314,19.14 22.314,19.637C22.314,20.133 22.718,20.537 23.215,20.537" style="fill:rgb(55,63,73);fill-rule:nonzero;"/>
        </g>
        <g transform="matrix(0.662547,0,0,0.662547,2.2,0.169913)">
            <path d="M21.061,19.158C21.558,19.158 21.962,18.754 21.962,18.258C21.962,17.76 21.558,17.356 21.061,17.356C20.565,17.356 20.161,17.76 20.161,18.258C20.161,18.754 20.565,19.158 21.061,19.158" style="fill:rgb(55,63,73);fill-rule:nonzero;"/>
        </g>
        <g transform="matrix(0.662547,0,0,0.662547,2.2,0.169913)">
            <path d="M21.311,22.248C21.809,22.248 22.213,21.845 22.213,21.348C22.213,20.851 21.809,20.447 21.311,20.447C20.816,20.447 20.411,20.851 20.411,21.348C20.411,21.845 20.816,22.248 21.311,22.248" style="fill:rgb(55,63,73);fill-rule:nonzero;"/>
        </g>
        <g transform="matrix(0.662547,0,0,0.662547,2.2,0.169913)">
            <path d="M19.285,24.084C19.781,24.084 20.186,23.681 20.186,23.184C20.186,22.687 19.781,22.283 19.285,22.283C18.788,22.283 18.385,22.687 18.385,23.184C18.385,23.681 18.788,24.084 19.285,24.084" style="fill:rgb(55,63,73);fill-rule:nonzero;"/>
        </g>
        <g transform="matrix(0.662547,0,0,0.662547,2.2,0.169913)">
            <path d="M17.593,21.694C17.593,21.197 17.189,20.793 16.692,20.793C16.196,20.793 15.792,21.197 15.792,21.694C15.792,22.191 16.196,22.594 16.692,22.594C17.189,22.594 17.593,22.191 17.593,21.694" style="fill:rgb(55,63,73);fill-rule:nonzero;"/>
        </g>
        <g transform="matrix(0.662547,0,0,0.662547,2.2,0.169913)">
            <path d="M14.891,20.131C14.891,19.633 14.486,19.229 13.99,19.229C13.492,19.229 13.089,19.633 13.089,20.131C13.089,20.626 13.492,21.031 13.99,21.031C14.486,21.031 14.891,20.626 14.891,20.131" style="fill:rgb(55,63,73);fill-rule:nonzero;"/>
        </g>
        <g transform="matrix(0.662547,0,0,0.662547,2.2,0.169913)">
            <path d="M16.474,19.237C16.971,19.237 17.375,18.833 17.375,18.337C17.375,17.84 16.971,17.435 16.474,17.435C15.977,17.435 15.574,17.84 15.574,18.337C15.574,18.833 15.977,19.237 16.474,19.237" style="fill:rgb(55,63,73);fill-rule:nonzero;"/>
        </g>
        <g transform="matrix(0.662547,0,0,0.662547,2.2,0.169913)">
            <path d="M13.83,17.508C14.327,17.508 14.731,17.104 14.731,16.608C14.731,16.11 14.327,15.706 13.83,15.706C13.334,15.706 12.93,16.11 12.93,16.608C12.93,17.104 13.334,17.508 13.83,17.508" style="fill:rgb(55,63,73);fill-rule:nonzero;"/>
        </g>
        <g transform="matrix(0.662547,0,0,0.662547,2.2,0.169913)">
            <path d="M18.945,20.801C19.442,20.801 19.847,20.398 19.847,19.901C19.847,19.404 19.442,18.999 18.945,18.999C18.449,18.999 18.045,19.404 18.045,19.901C18.045,20.398 18.449,20.801 18.945,20.801" style="fill:rgb(55,63,73);fill-rule:nonzero;"/>
        </g>
        <g transform="matrix(0.662547,0,0,0.662547,2.2,0.169913)">
            <path d="M14.439,22.629C13.942,22.629 13.539,23.033 13.539,23.53C13.539,24.027 13.942,24.43 14.439,24.43C14.936,24.43 15.34,24.027 15.34,23.53C15.34,23.033 14.936,22.629 14.439,22.629" style="fill:rgb(55,63,73);fill-rule:nonzero;"/>
        </g>
        <g transform="matrix(0.662547,0,0,0.662547,2.2,0.169913)">
            <path d="M17.971,25.1C17.971,24.602 17.567,24.198 17.07,24.198C16.573,24.198 16.17,24.602 16.17,25.1C16.17,25.595 16.573,26 17.07,26C17.567,26 17.971,25.595 17.971,25.1" style="fill:rgb(55,63,73);fill-rule:nonzero;"/>
        </g>
        <g transform="matrix(0.662547,0,0,0.662547,2.2,0.169913)">
            <path d="M29.075,18.054C29.075,17.557 28.67,17.153 28.173,17.153C27.677,17.153 27.273,17.557 27.273,18.054C27.273,18.551 27.677,18.954 28.173,18.954C28.67,18.954 29.075,18.551 29.075,18.054" style="fill:rgb(55,63,73);fill-rule:nonzero;"/>
        </g>
        <g transform="matrix(0.662547,0,0,0.662547,2.2,0.169913)">
            <path d="M29.586,20.428C30.083,20.428 30.487,20.024 30.487,19.528C30.487,19.031 30.083,18.626 29.586,18.626C29.089,18.626 28.686,19.031 28.686,19.528C28.686,20.024 29.089,20.428 29.586,20.428" style="fill:rgb(55,63,73);fill-rule:nonzero;"/>
        </g>
        <g transform="matrix(0.662547,0,0,0.662547,2.2,0.169913)">
            <path d="M28.992,21.231C28.992,20.734 28.588,20.329 28.091,20.329C27.594,20.329 27.19,20.734 27.19,21.231C27.19,21.727 27.594,22.131 28.091,22.131C28.588,22.131 28.992,21.727 28.992,21.231" style="fill:rgb(55,63,73);fill-rule:nonzero;"/>
        </g>
        <g transform="matrix(0.662547,0,0,0.662547,2.2,0.169913)">
            <path d="M26.596,23.925C27.093,23.925 27.496,23.522 27.496,23.025C27.496,22.528 27.093,22.124 26.596,22.124C26.098,22.124 25.696,22.528 25.696,23.025C25.696,23.522 26.098,23.925 26.596,23.925" style="fill:rgb(55,63,73);fill-rule:nonzero;"/>
        </g>
        <g transform="matrix(0.662547,0,0,0.662547,2.2,0.169913)">
            <path d="M27.958,26.043C28.455,26.043 28.859,25.639 28.859,25.143C28.859,24.646 28.455,24.241 27.958,24.241C27.461,24.241 27.058,24.646 27.058,25.143C27.058,25.639 27.461,26.043 27.958,26.043" style="fill:rgb(55,63,73);fill-rule:nonzero;"/>
        </g>
        <g transform="matrix(0.662547,0,0,0.662547,2.2,0.169913)">
            <path d="M26.288,28.141C26.785,28.141 27.189,27.737 27.189,27.241C27.189,26.744 26.785,26.339 26.288,26.339C25.791,26.339 25.388,26.744 25.388,27.241C25.388,27.737 25.791,28.141 26.288,28.141" style="fill:rgb(55,63,73);fill-rule:nonzero;"/>
        </g>
        <g transform="matrix(0.662547,0,0,0.662547,2.2,0.169913)">
            <path d="M23.009,27.799C23.507,27.799 23.91,27.396 23.91,26.899C23.91,26.402 23.507,25.998 23.009,25.998C22.513,25.998 22.11,26.402 22.11,26.899C22.11,27.396 22.513,27.799 23.009,27.799" style="fill:rgb(55,63,73);fill-rule:nonzero;"/>
        </g>
        <g transform="matrix(0.662547,0,0,0.662547,2.2,0.169913)">
            <path d="M21.727,25.405C22.224,25.405 22.629,25.001 22.629,24.505C22.629,24.007 22.224,23.603 21.727,23.603C21.231,23.603 20.827,24.007 20.827,24.505C20.827,25.001 21.231,25.405 21.727,25.405" style="fill:rgb(55,63,73);fill-rule:nonzero;"/>
        </g>
        <g transform="matrix(0.662547,0,0,0.662547,2.2,0.169913)">
            <path d="M24.877,25.798C25.374,25.798 25.778,25.394 25.778,24.898C25.778,24.401 25.374,23.996 24.877,23.996C24.38,23.996 23.977,24.401 23.977,24.898C23.977,25.394 24.38,25.798 24.877,25.798" style="fill:rgb(55,63,73);fill-rule:nonzero;"/>
        </g>
        <g transform="matrix(0.662547,0,0,0.662547,2.2,0.169913)">
            <path d="M24.385,22.656C24.385,22.158 23.981,21.754 23.483,21.754C22.988,21.754 22.583,22.158 22.583,22.656C22.583,23.152 22.988,23.556 23.483,23.556C23.981,23.556 24.385,23.152 24.385,22.656" style="fill:rgb(55,63,73);fill-rule:nonzero;"/>
        </g>
        <g transform="matrix(0.662547,0,0,0.662547,2.2,0.169913)">
            <path d="M25.159,21.92C25.656,21.92 26.06,21.517 26.06,21.02C26.06,20.523 25.656,20.119 25.159,20.119C24.662,20.119 24.259,20.523 24.259,21.02C24.259,21.517 24.662,21.92 25.159,21.92" style="fill:rgb(55,63,73);fill-rule:nonzero;"/>
        </g>
        <g transform="matrix(0.662547,0,0,0.662547,2.2,0.169913)">
            <path d="M26.731,20.371C27.229,20.371 27.632,19.968 27.632,19.471C27.632,18.974 27.229,18.57 26.731,18.57C26.235,18.57 25.831,18.974 25.831,19.471C25.831,19.968 26.235,20.371 26.731,20.371" style="fill:rgb(55,63,73);fill-rule:nonzero;"/>
        </g>
        <g transform="matrix(0.662547,0,0,0.662547,2.2,0.169913)">
            <path d="M20.67,26.363C20.67,25.866 20.265,25.462 19.768,25.462C19.272,25.462 18.868,25.866 18.868,26.363C18.868,26.859 19.272,27.263 19.768,27.263C20.265,27.263 20.67,26.859 20.67,26.363" style="fill:rgb(55,63,73);fill-rule:nonzero;"/>
        </g>
        <g transform="matrix(0.662547,0,0,0.662547,2.2,0.169913)">
            <path d="M21.109,28.219C20.613,28.219 20.209,28.624 20.209,29.121C20.209,29.617 20.613,30.021 21.109,30.021C21.606,30.021 22.01,29.617 22.01,29.121C22.01,28.624 21.606,28.219 21.109,28.219" style="fill:rgb(55,63,73);fill-rule:nonzero;"/>
        </g>
        <g transform="matrix(0.662547,0,0,0.662547,2.2,0.169913)">
            <path d="M17.849,27.564C17.351,27.564 16.948,27.968 16.948,28.466C16.948,28.962 17.351,29.366 17.849,29.366C18.345,29.366 18.749,28.962 18.749,28.466C18.749,27.968 18.345,27.564 17.849,27.564" style="fill:rgb(55,63,73);fill-rule:nonzero;"/>
        </g>
        <g transform="matrix(0.662547,0,0,0.662547,2.2,0.169913)">
            <path d="M24.499,28.589C24.002,28.589 23.599,28.994 23.599,29.491C23.599,29.987 24.002,30.391 24.499,30.391C24.996,30.391 25.4,29.987 25.4,29.491C25.4,28.994 24.996,28.589 24.499,28.589" style="fill:rgb(55,63,73);fill-rule:nonzero;"/>
        </g>
        <g transform="matrix(0.662547,0,0,0.662547,2.2,0.169913)">
            <path d="M32.548,9.372C32.052,9.372 31.648,9.777 31.648,10.274C31.648,10.77 32.052,11.174 32.548,11.174C33.045,11.174 33.449,10.77 33.449,10.274C33.449,9.777 33.045,9.372 32.548,9.372" style="fill:rgb(55,63,73);fill-rule:nonzero;"/>
        </g>
        <g transform="matrix(0.662547,0,0,0.662547,2.2,0.169913)">
            <path d="M38.924,10.122C38.924,10.619 39.327,11.022 39.824,11.022C40.321,11.022 40.725,10.619 40.725,10.122C40.725,9.625 40.321,9.221 39.824,9.221C39.327,9.221 38.924,9.625 38.924,10.122" style="fill:rgb(55,63,73);fill-rule:nonzero;"/>
        </g>
        <g transform="matrix(0.662547,0,0,0.662547,2.2,0.169913)">
            <path d="M37.831,11.067C37.335,11.067 36.931,11.471 36.931,11.968C36.931,12.465 37.335,12.868 37.831,12.868C38.328,12.868 38.732,12.465 38.732,11.968C38.732,11.471 38.328,11.067 37.831,11.067" style="fill:rgb(55,63,73);fill-rule:nonzero;"/>
        </g>
        <g transform="matrix(0.662547,0,0,0.662547,2.2,0.169913)">
            <path d="M40.163,14.258C40.661,14.258 41.065,13.854 41.065,13.358C41.065,12.86 40.661,12.456 40.163,12.456C39.667,12.456 39.263,12.86 39.263,13.358C39.263,13.854 39.667,14.258 40.163,14.258" style="fill:rgb(55,63,73);fill-rule:nonzero;"/>
        </g>
        <g transform="matrix(0.662547,0,0,0.662547,2.2,0.169913)">
            <path d="M40.305,15.703C39.808,15.703 39.405,16.107 39.405,16.604C39.405,17.101 39.808,17.505 40.305,17.505C40.802,17.505 41.205,17.101 41.205,16.604C41.205,16.107 40.802,15.703 40.305,15.703" style="fill:rgb(55,63,73);fill-rule:nonzero;"/>
        </g>
        <g transform="matrix(0.662547,0,0,0.662547,2.2,0.169913)">
            <path d="M37.142,15.049C37.142,15.545 37.545,15.949 38.042,15.949C38.539,15.949 38.943,15.545 38.943,15.049C38.943,14.551 38.539,14.147 38.042,14.147C37.545,14.147 37.142,14.551 37.142,15.049" style="fill:rgb(55,63,73);fill-rule:nonzero;"/>
        </g>
        <g transform="matrix(0.662547,0,0,0.662547,2.2,0.169913)">
            <path d="M35.957,14.56C36.455,14.56 36.859,14.156 36.859,13.66C36.859,13.162 36.455,12.758 35.957,12.758C35.461,12.758 35.057,13.162 35.057,13.66C35.057,14.156 35.461,14.56 35.957,14.56" style="fill:rgb(55,63,73);fill-rule:nonzero;"/>
        </g>
        <g transform="matrix(0.662547,0,0,0.662547,2.2,0.169913)">
            <path d="M9.416,58.844C8.217,58.543 7.607,58.406 7.607,57.632C7.607,56.951 8.148,56.502 8.978,56.502C10.212,56.502 10.305,57.484 10.328,57.77L12.046,57.77C12.046,57.492 12.046,56.822 11.573,56.223C10.95,55.44 9.924,55.244 9.059,55.244C6.741,55.244 5.759,56.454 5.759,57.829C5.759,59.27 6.843,59.858 8.828,60.354C9.89,60.609 10.41,60.735 10.41,61.473C10.41,62.177 9.799,62.639 8.828,62.639C7.293,62.639 7.318,61.449 7.318,61.058L5.495,61.058C5.507,61.865 5.529,63.92 8.725,63.92C11.031,63.92 12.278,62.708 12.278,61.208C12.278,59.581 10.859,59.189 9.416,58.844" style="fill:rgb(55,63,73);fill-rule:nonzero;"/>
        </g>
        <g transform="matrix(0.662547,0,0,0.662547,2.2,0.169913)">
            <path d="M15.691,56.166L13.994,56.789L13.994,57.933L12.876,57.933L12.876,59.062L13.994,59.062L13.994,62.257C13.994,62.742 13.994,63.827 15.715,63.827C15.991,63.827 16.488,63.792 17.039,63.642L17.039,62.523C16.832,62.546 16.716,62.558 16.464,62.558C15.701,62.558 15.701,62.223 15.691,61.692L15.691,59.062L17.075,59.062L17.075,57.933L15.691,57.933L15.691,56.166Z" style="fill:rgb(55,63,73);fill-rule:nonzero;"/>
        </g>
        <g transform="matrix(0.662547,0,0,0.662547,2.2,0.169913)">
            <path d="M23.441,61.74L23.441,57.898L21.687,57.898L21.687,60.839C21.687,61.83 21.687,62.65 20.59,62.65C19.68,62.65 19.68,61.878 19.68,61.369L19.68,57.898L17.95,57.898L17.95,61.522C17.95,61.807 17.95,62.615 18.33,63.089C18.654,63.515 19.299,63.873 20.084,63.873C21.192,63.873 21.631,63.203 21.804,62.95L21.86,63.723L23.522,63.723C23.499,63.562 23.487,63.458 23.475,63.297C23.475,63.146 23.463,62.995 23.441,61.74" style="fill:rgb(55,63,73);fill-rule:nonzero;"/>
        </g>
        <g transform="matrix(0.662547,0,0,0.662547,2.2,0.169913)">
            <path d="M31.411,56.166L29.714,56.788L29.714,57.932L27.21,57.932L27.21,56.166L25.516,56.788L25.516,57.932L24.396,57.932L24.396,59.062L25.516,59.062L25.516,62.257C25.516,62.742 25.516,63.826 27.236,63.826C27.511,63.826 28.008,63.792 28.56,63.642L28.56,62.523C28.355,62.546 28.238,62.558 27.985,62.558C27.225,62.558 27.225,62.223 27.21,61.692L27.21,59.062L29.714,59.062L29.714,62.257C29.714,62.742 29.714,63.826 31.432,63.826C31.711,63.826 32.206,63.792 32.76,63.642L32.76,62.523C32.552,62.546 32.438,62.558 32.183,62.558C31.423,62.558 31.423,62.223 31.411,61.692L31.411,59.062L32.795,59.062L32.795,57.932L31.411,57.932L31.411,56.166Z" style="fill:rgb(55,63,73);fill-rule:nonzero;"/>
        </g>
        <g transform="matrix(0.662547,0,0,0.662547,2.2,0.169913)">
            <path d="M37.684,58.693C37.512,58.438 37.12,57.862 36.058,57.862C34.387,57.862 33.567,59.271 33.567,60.747C33.567,62.153 34.352,63.607 36.025,63.607C36.439,63.607 37.049,63.528 37.592,62.811C37.581,63.701 37.581,63.907 37.512,64.196C37.396,64.714 36.957,64.956 36.449,64.956C35.539,64.956 35.458,64.323 35.436,64.151L33.796,64.151C33.901,65.915 35.528,66.018 36.359,66.018C37.477,66.018 39.265,65.812 39.265,63.664L39.265,59.361C39.265,58.775 39.301,58.38 39.346,57.92L37.742,57.92L37.684,58.693ZM36.415,62.442C35.274,62.442 35.274,61.035 35.274,60.747C35.274,59.499 35.804,59.004 36.449,59.004C37.489,59.004 37.615,60.124 37.615,60.781C37.615,61.035 37.615,62.442 36.415,62.442" style="fill:rgb(55,63,73);fill-rule:nonzero;"/>
        </g>
        <g transform="matrix(0.662547,0,0,0.662547,2.2,0.169913)">
            <path d="M45.44,59.905C45.44,59.638 45.429,58.948 45.035,58.473C44.46,57.805 43.444,57.724 42.959,57.724C42.407,57.724 41.725,57.817 41.195,58.197C40.584,58.636 40.548,59.258 40.538,59.571L42.209,59.571C42.209,59.432 42.209,59.247 42.338,59.052C42.487,58.831 42.74,58.727 42.983,58.727C43.144,58.727 43.596,58.785 43.745,59.212C43.814,59.42 43.826,59.605 43.826,59.985C43.259,59.985 42.234,59.985 41.519,60.309C40.443,60.804 40.283,61.657 40.283,62.12C40.283,62.581 40.443,63.054 40.79,63.4C41.022,63.619 41.402,63.862 42.245,63.862C42.567,63.862 43.341,63.862 43.987,62.927C43.987,63.1 43.987,63.364 44.045,63.723L45.591,63.723C45.486,63.238 45.452,62.743 45.452,62.246L45.44,59.905ZM43.502,62.42C43.341,62.603 43.087,62.755 42.776,62.755C42.209,62.755 41.945,62.317 41.945,61.924C41.945,61.231 42.729,60.885 43.826,60.978C43.826,61.6 43.801,62.05 43.502,62.42" style="fill:rgb(55,63,73);fill-rule:nonzero;"/>
        </g>
        <g transform="matrix(0.662547,0,0,0.662547,2.2,0.169913)">
            <path d="M54.221,59.062L54.221,57.932L52.836,57.932L52.836,56.166L51.138,56.788L51.138,57.932L50.02,57.932L50.022,57.937C48.915,57.979 48.57,58.54 48.372,58.993L48.337,57.875L46.733,57.875C46.767,58.209 46.814,59.051 46.814,59.327L46.814,63.723L48.522,63.723L48.522,60.851C48.522,60.124 48.495,59.062 50.355,59.062L51.138,59.062L51.138,62.257C51.138,62.743 51.138,63.826 52.858,63.826C53.135,63.826 53.633,63.792 54.185,63.642L54.185,62.522C53.979,62.545 53.862,62.558 53.609,62.558C52.847,62.558 52.847,62.222 52.836,61.692L52.836,59.062L54.221,59.062Z" style="fill:rgb(55,63,73);fill-rule:nonzero;"/>
        </g>
        <g transform="matrix(0.662547,0,0,0.662547,2.2,0.169913)">
            <path d="M5.48,47.264C5.48,48.104 5.387,48.428 5.214,48.682C4.754,49.397 3.888,49.41 3.6,49.41C1.858,49.41 1.789,48.267 1.789,47.356L1.789,42.123L0,42.123L0,47.264C0,48.038 0.023,48.682 0.426,49.315C1.213,50.575 2.735,50.759 3.565,50.759C5.249,50.759 7.222,49.963 7.222,47.483L7.222,42.123L5.48,42.123L5.48,47.264Z" style="fill:rgb(55,63,73);fill-rule:nonzero;"/>
        </g>
        <g transform="matrix(0.662547,0,0,0.662547,2.2,0.169913)">
            <path d="M12.023,44.491C10.754,44.491 10.293,45.243 10.131,45.508L10.084,44.631L8.446,44.631C8.481,45.035 8.481,45.668 8.481,45.692L8.481,50.478L10.201,50.478L10.201,47.065C10.201,46.614 10.304,46.326 10.407,46.176C10.593,45.899 10.928,45.725 11.295,45.725C11.735,45.725 12,45.968 12.127,46.221C12.218,46.405 12.218,46.614 12.218,46.857L12.218,50.478L13.96,50.478L13.96,47.331C13.96,46.245 13.926,45.945 13.8,45.588C13.65,45.184 13.165,44.491 12.023,44.491" style="fill:rgb(55,63,73);fill-rule:nonzero;"/>
        </g>
        <g transform="matrix(0.662547,0,0,0.662547,2.2,0.169913)">
            <rect x="15.26" y="44.641" width="1.706" height="5.837" style="fill:rgb(55,63,73);"/>
        </g>
        <g transform="matrix(0.662547,0,0,0.662547,2.2,0.169913)">
            <path d="M20.922,48.609L19.606,44.654L17.783,44.654L19.919,50.479L21.81,50.479L23.909,44.654L22.259,44.654L20.922,48.609Z" style="fill:rgb(55,63,73);fill-rule:nonzero;"/>
        </g>
        <g transform="matrix(0.662547,0,0,0.662547,2.2,0.169913)">
            <path d="M27.079,44.455C26.445,44.455 25.891,44.641 25.442,44.942C24.462,45.622 24.229,46.752 24.229,47.699C24.229,48.634 24.45,49.418 24.98,49.972C25.59,50.605 26.538,50.698 27.036,50.698C27.887,50.698 28.648,50.467 29.076,50.017C29.548,49.521 29.606,49.026 29.629,48.748L28.071,48.748C27.911,49.395 27.483,49.556 27.056,49.556C25.869,49.556 25.869,48.379 25.869,47.998L29.779,47.998C29.802,47.515 29.824,46.66 29.433,45.863C28.903,44.779 27.911,44.455 27.079,44.455M25.926,46.926C25.962,46.246 26.272,45.622 27.023,45.622C28.014,45.622 28.038,46.66 28.038,46.926L25.926,46.926Z" style="fill:rgb(55,63,73);fill-rule:nonzero;"/>
        </g>
        <g transform="matrix(0.662547,0,0,0.662547,2.2,0.169913)">
            <path d="M32.431,45.75L32.396,44.631L30.794,44.631C30.828,44.964 30.873,45.807 30.873,46.083L30.873,50.478L32.581,50.478L32.581,47.607C32.581,46.88 32.685,45.992 34.415,46.152L34.415,44.619C33.032,44.55 32.652,45.252 32.431,45.75" style="fill:rgb(55,63,73);fill-rule:nonzero;"/>
        </g>
        <g transform="matrix(0.662547,0,0,0.662547,2.2,0.169913)">
            <path d="M38.486,47.018L37.437,46.729C36.929,46.591 36.642,46.51 36.642,46.118C36.642,45.76 36.987,45.541 37.447,45.541C37.714,45.541 38.233,45.587 38.279,46.233L39.837,46.233C39.79,45.069 38.822,44.515 37.622,44.515C36.111,44.515 35.073,45.207 35.073,46.336C35.073,47.524 36.075,47.813 36.549,47.951L37.611,48.241C38.279,48.426 38.418,48.634 38.418,48.898C38.418,49.245 38.13,49.59 37.517,49.59C36.801,49.59 36.572,49.164 36.549,48.794L34.945,48.794C34.957,49.072 34.992,49.533 35.372,49.936C35.902,50.489 36.618,50.65 37.368,50.65C39.18,50.65 40.044,49.648 40.044,48.644C40.044,47.848 39.548,47.307 38.486,47.018" style="fill:rgb(55,63,73);fill-rule:nonzero;"/>
        </g>
        <g transform="matrix(0.662547,0,0,0.662547,2.2,0.169913)">
            <rect x="41.129" y="44.641" width="1.706" height="5.837" style="fill:rgb(55,63,73);"/>
        </g>
        <g transform="matrix(0.662547,0,0,0.662547,2.2,0.169913)">
            <path d="M46.601,42.611L44.905,42.922L44.905,44.689L43.786,44.689L43.786,45.818L44.905,45.818L44.905,49.013C44.905,49.498 44.905,50.583 46.626,50.583C46.903,50.583 47.398,50.548 47.951,50.398L47.951,49.279C47.745,49.302 47.629,49.314 47.374,49.314C46.615,49.314 46.615,48.979 46.601,48.448L46.601,45.818L47.988,45.818L47.988,44.689L46.601,44.689L46.601,42.611Z" style="fill:rgb(55,63,73);fill-rule:nonzero;"/>
        </g>
        <g transform="matrix(0.662547,0,0,0.662547,2.2,0.169913)">
            <path d="M54.061,46.661C54.061,46.394 54.048,45.704 53.657,45.229C53.079,44.561 52.065,44.48 51.579,44.48C51.026,44.48 50.345,44.573 49.814,44.953C49.204,45.392 49.17,46.014 49.158,46.327L50.832,46.327C50.832,46.188 50.832,46.003 50.958,45.808C51.107,45.587 51.363,45.483 51.604,45.483C51.763,45.483 52.214,45.541 52.364,45.968C52.434,46.176 52.446,46.361 52.446,46.741C51.879,46.741 50.853,46.741 50.139,47.065C49.067,47.56 48.903,48.413 48.903,48.876C48.903,49.337 49.067,49.81 49.412,50.156C49.641,50.375 50.022,50.618 50.865,50.618C51.188,50.618 51.961,50.618 52.606,49.683C52.606,49.856 52.606,50.12 52.665,50.479L54.21,50.479C54.106,49.994 54.072,49.499 54.072,49.002L54.061,46.661ZM52.121,49.176C51.961,49.359 51.707,49.511 51.395,49.511C50.832,49.511 50.565,49.073 50.565,48.68C50.565,47.987 51.348,47.641 52.446,47.734C52.446,48.356 52.424,48.806 52.121,49.176" style="fill:rgb(55,63,73);fill-rule:nonzero;"/>
        </g>
        <g transform="matrix(0.662547,0,0,0.662547,2.2,0.169913)">
            <path d="M57.736,42.922L56.041,43.545L56.041,44.689L54.923,44.689L54.923,45.818L56.041,45.818L56.041,49.013C56.041,49.498 56.041,50.583 57.761,50.583C58.039,50.583 58.533,50.548 59.087,50.398L59.087,49.279C58.88,49.302 58.764,49.314 58.511,49.314C57.751,49.314 57.751,48.979 57.736,48.448L57.736,45.818L59.122,45.818L59.122,44.689L57.736,44.689L57.736,42.922Z" style="fill:rgb(55,63,73);fill-rule:nonzero;"/>
        </g>
        <g transform="matrix(0.662547,0,0,0.662547,2.2,0.169913)">
            <path d="M50.495,43.82C50.959,43.82 51.334,43.443 51.334,42.981C51.334,42.519 50.959,42.144 50.495,42.144C50.033,42.144 49.657,42.519 49.657,42.981C49.657,43.443 50.033,43.82 50.495,43.82" style="fill:rgb(55,63,73);fill-rule:nonzero;"/>
        </g>
        <g transform="matrix(0.662547,0,0,0.662547,2.2,0.169913)">
            <path d="M52.734,43.82C53.197,43.82 53.573,43.443 53.573,42.981C53.573,42.519 53.197,42.144 52.734,42.144C52.272,42.144 51.896,42.519 51.896,42.981C51.896,43.443 52.272,43.82 52.734,43.82" style="fill:rgb(55,63,73);fill-rule:nonzero;"/>
        </g>
        <g transform="matrix(0.662547,0,0,0.662547,2.2,0.169913)">
            <path d="M42,42.063C41.491,42.063 41.081,42.476 41.081,42.981C41.081,43.489 41.491,43.902 42,43.902C42.508,43.902 42.919,43.489 42.919,42.981C42.919,42.476 42.508,42.063 42,42.063" style="fill:rgb(55,63,73);fill-rule:nonzero;"/>
        </g>
        <g transform="matrix(0.662547,0,0,0.662547,2.2,0.169913)">
            <path d="M16.112,42.063C15.605,42.063 15.192,42.476 15.192,42.981C15.192,43.489 15.605,43.902 16.112,43.902C16.619,43.902 17.032,43.489 17.032,42.981C17.032,42.476 16.619,42.063 16.112,42.063" style="fill:rgb(55,63,73);fill-rule:nonzero;"/>
        </g>
    </g>
</svg>
